<?xml version="1.0" encoding="UTF-8"?>
<svg width="88px" height="40px" viewBox="0 0 88 40" version="1.1" xmlns="http://www.w3.org/2000/svg" xmlns:xlink="http://www.w3.org/1999/xlink">
    <!-- Generator: Sketch 49.1 (51147) - http://www.bohemiancoding.com/sketch -->
    <title>Atoms/Brand/Logo - White</title>
    <desc>Created with Sketch.</desc>
    <defs></defs>
    <g id="Atoms/Brand/Logo---White" stroke="none" stroke-width="1" fill="none" fill-rule="evenodd">
        <path d="M87.3694,12.7 C87.3694,13.824 86.4614,14.733 85.3374,14.733 C84.2104,14.733 83.3024,13.824 83.3024,12.7 C83.3024,11.576 84.2104,10.666 85.3374,10.666 C86.4614,10.666 87.3694,11.576 87.3694,12.7 Z M83.5084,12.7 C83.5084,13.728 84.3034,14.553 85.3414,14.553 C86.3794,14.553 87.1614,13.722 87.1614,12.694 C87.1614,11.657 86.3844,10.846 85.3414,10.846 C84.2934,10.846 83.5084,11.65 83.5084,12.7 Z M84.5964,11.498 L85.5004,11.498 C86.0424,11.498 86.2814,11.725 86.2814,12.162 C86.2814,12.553 86.0054,12.743 85.6624,12.797 L86.3794,13.899 L86.1524,13.899 L85.4274,12.792 L84.8024,12.792 L84.8024,13.899 L84.5964,13.899 L84.5964,11.498 Z M84.8024,12.613 L85.3134,12.613 C85.6794,12.613 86.0734,12.575 86.0734,12.155 C86.0734,11.785 85.7544,11.676 85.4654,11.676 L84.8024,11.676 L84.8024,12.613 Z M25.0541,15.8829 C27.6291,15.8829 29.1971,16.3359 29.9851,17.3039 C30.4131,17.8289 30.6301,18.5289 30.6361,19.4149 C30.6381,19.9069 30.5741,20.4559 30.4491,21.0679 L28.6851,29.5939 C28.4401,30.7719 28.2911,31.6769 28.2971,32.4209 C28.2981,32.6589 28.3201,32.8799 28.3541,33.0879 L23.5261,33.0879 C23.5231,33.0359 23.5181,32.9839 23.5171,32.9309 C23.5121,32.5759 23.5411,32.2039 23.5711,31.8179 L23.6241,31.1189 L23.3571,31.1189 L23.2521,31.2829 C22.3821,32.6769 20.4161,33.5389 18.7311,33.5389 C17.3311,33.5389 16.3321,33.1829 15.7551,32.4739 C15.1191,31.6929 14.9671,30.4699 15.3011,28.8389 C15.9621,25.6569 17.4061,24.3109 21.0361,23.4959 C21.0371,23.4959 23.4461,22.9469 23.4461,22.9469 C24.8761,22.6309 25.5661,22.0019 25.8211,20.7669 C25.9591,20.0929 25.8831,19.5689 25.5951,19.2129 C25.3271,18.8859 24.8961,18.7199 24.3171,18.7199 C23.0251,18.7199 22.3381,19.3859 21.9161,21.0449 L17.6051,21.0449 C18.7631,16.5679 22.7421,15.8829 25.0541,15.8829 Z M41.7964,24.8589 C43.3274,17.2299 46.2284,15.8829 48.7524,15.8829 C49.9504,15.8829 51.7594,16.3269 51.9704,18.4329 L52.0054,18.7599 L52.3564,18.7599 C52.3564,18.7599 52.7654,16.7799 52.8544,16.3389 L57.5454,16.3389 C57.3734,17.1609 54.0634,33.0879 54.0634,33.0879 C53.2334,37.0889 50.6644,39.0819 45.9504,39.0819 C41.5864,39.0819 40.9384,36.5069 40.8404,35.7099 C40.8034,35.4069 40.9044,34.5129 40.9044,34.5129 L45.4704,34.5129 C45.4704,34.9239 45.5034,35.5239 45.6404,35.6919 C45.8284,35.9259 45.9854,36.2009 46.7084,36.2009 C47.6684,36.2009 48.5924,35.9229 49.0404,33.7539 L49.8184,29.9939 L49.4424,29.9939 L49.3374,30.1719 C48.4044,31.7899 46.6614,32.6069 44.8254,32.6069 C43.6964,32.6069 42.8714,32.2729 42.3114,31.5829 C41.2934,30.3329 41.0904,28.3649 41.7964,24.8589 Z M65.0699,16.3376 C64.9009,17.1456 61.7159,32.5516 61.6039,33.0876 L56.5239,33.0876 C56.6919,32.2786 59.8829,16.8726 59.9919,16.3376 L65.0699,16.3376 Z M74.3971,10.7507 C74.2261,11.5707 69.8861,32.5427 69.7741,33.0877 L64.6931,33.0877 C64.8641,32.2627 69.2041,11.2917 69.3171,10.7507 L74.3971,10.7507 Z M82.5377,10.7507 C82.3647,11.5707 78.0247,32.5427 77.9097,33.0877 L72.8357,33.0877 C73.0057,32.2627 77.3467,11.2917 77.4587,10.7507 L82.5377,10.7507 Z M43.0328,15.8835 L43.5258,15.8835 C43.3848,16.5675 42.6768,19.9965 42.5628,20.5395 C42.2018,20.4865 41.8348,20.4635 41.4158,20.4635 C38.9928,20.4635 37.6388,21.5375 37.1618,23.8445 C37.1618,23.8445 35.5778,31.5145 35.2528,33.0885 L30.1728,33.0885 C30.2978,32.4735 32.1668,23.4535 33.1078,18.9055 C33.2408,18.1605 33.3168,17.5395 33.3138,17.0025 C33.3128,16.7625 33.2918,16.5445 33.2568,16.3355 L38.0878,16.3355 L38.0878,16.3375 L38.5228,16.3375 C38.3978,16.9545 37.9498,19.1135 37.9498,19.1135 L38.3208,19.1135 L38.4218,18.9195 C39.3888,17.0465 41.3708,15.8835 43.0328,15.8835 Z M0.9977,32.2146 C-0.2693,30.6556 -0.3253,27.7966 0.8067,22.3316 C2.6147,13.5966 5.2257,10.6506 11.1597,10.6506 C13.5297,10.6506 15.1947,11.2136 16.1037,12.3306 C16.6927,13.0506 16.9897,14.0346 16.9967,15.2686 C16.9997,15.9406 16.9167,16.6886 16.7497,17.5066 C16.7497,17.5066 16.5927,18.2506 16.5067,18.6716 L11.5067,18.6716 C11.5067,18.6716 11.8777,16.2886 11.8757,15.7626 C11.8707,15.1716 11.8477,14.8516 11.6217,14.5526 C11.3877,14.2436 11.0387,13.9966 10.4917,13.9966 C8.2817,13.9966 7.5557,16.1016 6.2957,22.1836 C5.3197,26.9036 4.9697,29.0706 5.7247,29.9976 C6.0107,30.3486 6.4427,30.5176 7.0467,30.5176 C8.7877,30.5176 9.4727,29.0246 10.3497,24.8746 L15.3847,24.8746 C15.2847,25.3556 15.1197,26.1486 15.1197,26.1486 C14.0597,31.2676 11.0617,33.8646 6.2017,33.8646 C3.5687,33.8646 1.9167,33.3396 0.9977,32.2146 Z M25.0011,24.6599 C25.0011,24.6599 24.9041,24.7489 24.7181,24.8229 C24.4111,24.9399 23.7351,25.0519 23.3171,25.1559 C22.9921,25.2359 22.6271,25.3299 22.2311,25.4959 C21.1781,25.9419 20.6371,26.6719 20.3571,28.0129 C20.1941,28.7979 20.2891,29.4399 20.6351,29.8649 C20.8951,30.1829 21.2751,30.3509 21.7391,30.3509 C23.6211,30.3509 24.2091,28.5499 24.4891,27.1929 L25.0161,24.6599 L25.0011,24.6599 Z M46.9674,24.4899 C46.4544,26.9709 46.4804,27.9269 46.9804,28.5439 C47.2284,28.8499 47.6014,28.9989 48.1174,28.9989 C49.5414,28.9989 50.2404,28.1329 50.9634,24.6369 C51.4814,22.1359 51.5344,20.5459 51.0404,19.9349 C50.7954,19.6379 50.4414,19.4919 49.9494,19.4919 C48.4774,19.4919 47.6934,20.9949 46.9674,24.4899 Z" id="" fill="#FFFFFF"></path>
        <path d="M65.5045,14.361 C65.9025,5.156 54.8015,-1.755 44.4435,0.394 C34.0875,2.543 29.0825,11.557 27.7745,14.341 L29.4655,14.341 C31.7355,10.531 34.0305,7.571 37.9405,6.467 C40.4265,5.767 42.3785,5.926 47.1845,8.61 C49.3995,9.843 54.4095,13.557 59.7915,14.301 C62.1295,14.624 65.5045,14.361 65.5045,14.361" id="leaf" fill="#FFFFFF"></path>
    </g>
</svg>